<svg height="512" viewBox="0 0 64 64" width="512" xmlns="http://www.w3.org/2000/svg"><g id="course_online" data-name="course online"><path d="m61 2h-58a1 1 0 0 0 -1 1v56a3.009 3.009 0 0 0 3 3h54a3.009 3.009 0 0 0 3-3v-56a1 1 0 0 0 -1-1zm-1 57a1 1 0 0 1 -1 1h-54a1 1 0 0 1 -1-1v-49h56zm0-51h-56v-4h56z"/><path d="m30 15h28v2h-28z"/><path d="m30 21h28v2h-28z"/><path d="m49 5h2v2h-2z"/><path d="m53 5h2v2h-2z"/><path d="m57 5h2v2h-2z"/><path d="m17 12h-8a3.009 3.009 0 0 0 -3 3v8a3.009 3.009 0 0 0 3 3h8a3.009 3.009 0 0 0 3-3v-8a3.009 3.009 0 0 0 -3-3zm1 11a1 1 0 0 1 -1 1h-8a1 1 0 0 1 -1-1v-8a1 1 0 0 1 1-1h8a1 1 0 0 1 1 1z"/><path d="m12 19.586-1.293-1.293-1.414 1.414 2 2a1 1 0 0 0 1.414 0l4-4-1.414-1.414z"/><path d="m17 28h-8a3.009 3.009 0 0 0 -3 3v8a3.009 3.009 0 0 0 3 3h8a3.009 3.009 0 0 0 3-3v-8a3.009 3.009 0 0 0 -3-3zm1 11a1 1 0 0 1 -1 1h-8a1 1 0 0 1 -1-1v-8a1 1 0 0 1 1-1h8a1 1 0 0 1 1 1z"/><path d="m12 35.586-1.293-1.293-1.414 1.414 2 2a1 1 0 0 0 1.414 0l4-4-1.414-1.414z"/><path d="m17 44h-8a3.009 3.009 0 0 0 -3 3v8a3.009 3.009 0 0 0 3 3h8a3.009 3.009 0 0 0 3-3v-8a3.009 3.009 0 0 0 -3-3zm1 11a1 1 0 0 1 -1 1h-8a1 1 0 0 1 -1-1v-8a1 1 0 0 1 1-1h8a1 1 0 0 1 1 1z"/><path d="m12 51.586-1.293-1.293-1.414 1.414 2 2a1 1 0 0 0 1.414 0l4-4-1.414-1.414z"/><path d="m26 15h2v2h-2z"/><path d="m26 21h2v2h-2z"/><path d="m30 31h28v2h-28z"/><path d="m30 37h28v2h-28z"/><path d="m26 31h2v2h-2z"/><path d="m26 37h2v2h-2z"/><path d="m30 47h28v2h-28z"/><path d="m30 53h28v2h-28z"/><path d="m26 47h2v2h-2z"/><path d="m26 53h2v2h-2z"/></g></svg>