<?xml version="1.0" encoding="utf-8"?>
<!-- Svg Vector Icons : http://www.onlinewebfonts.com/icon -->
<!DOCTYPE svg PUBLIC "-//W3C//DTD SVG 1.1//EN" "http://www.w3.org/Graphics/SVG/1.1/DTD/svg11.dtd">
<svg version="1.1" xmlns="http://www.w3.org/2000/svg" xmlns:xlink="http://www.w3.org/1999/xlink" x="0px" y="0px" viewBox="0 0 1000 1000" enable-background="new 0 0 1000 1000" xml:space="preserve">
<metadata> Svg Vector Icons : http://www.onlinewebfonts.com/icon </metadata>
<g><path d="M500,10C229.4,10,10,229.4,10,500C10,770.5,229.4,990,500,990S990,770.6,990,500C990,229.3,770.6,10,500,10z M500,953.8c-119.6,0-229.2-43-314.3-114.3c45.9-50,142.3-86.9,258.2-95.5v-67.5c-59.4-59.5-100.6-181.2-100.6-283.6c0-141.5,78.4-192.1,175-192.1c96.7,0,175,50.6,175,192.1c0,107.5-45.3,236.2-109.4,292v63C686.3,761.3,769.4,797.2,809,844C724.6,912.6,617.1,953.8,500,953.8z"/></g>
</svg>